0, 0, Header, 1, 5, 96
1, 0, Start_track
1, 0, Tempo, 370370
1, 0, Note_on_c, 1, 65, 100
1, 47, Note_off_c, 1, 65, 64
1, 48, Note_on_c, 1, 62, 100
1, 95, Note_off_c, 1, 62, 64
1, 96, Note_on_c, 1, 57, 100
1, 143, Note_off_c, 1, 57, 64
1, 144, Note_on_c, 1, 62, 100
1, 191, Note_off_c, 1, 62, 64
1, 192, Note_on_c, 1, 65, 100
1, 239, Note_off_c, 1, 65, 64
1, 240, Note_on_c, 1, 62, 100
1, 287, Note_off_c, 1, 62, 64
1, 288, Note_on_c, 1, 57, 100
1, 335, Note_off_c, 1, 57, 64
1, 336, Note_on_c, 1, 62, 100
1, 383, Note_off_c, 1, 62, 64
1, 384, Note_on_c, 1, 65, 100
1, 431, Note_off_c, 1, 65, 64
1, 432, Note_on_c, 1, 60, 100
1, 479, Note_off_c, 1, 60, 64
1, 480, Note_on_c, 1, 57, 100
1, 527, Note_off_c, 1, 57, 64
1, 528, Note_on_c, 1, 60, 100
1, 575, Note_off_c, 1, 60, 64
1, 576, Note_on_c, 1, 65, 100
1, 623, Note_off_c, 1, 65, 64
1, 624, Note_on_c, 1, 60, 100
1, 671, Note_off_c, 1, 60, 64
1, 672, Note_on_c, 1, 57, 100
1, 719, Note_off_c, 1, 57, 64
1, 720, Note_on_c, 1, 60, 100
1, 767, Note_off_c, 1, 60, 64
1, 768, Note_on_c, 1, 64, 100
1, 815, Note_off_c, 1, 64, 64
1, 816, Note_on_c, 1, 61, 100
1, 863, Note_off_c, 1, 61, 64
1, 864, Note_on_c, 1, 57, 100
1, 911, Note_off_c, 1, 57, 64
1, 912, Note_on_c, 1, 61, 100
1, 959, Note_off_c, 1, 61, 64
1, 960, Note_on_c, 1, 64, 100
1, 1007, Note_off_c, 1, 64, 64
1, 1008, Note_on_c, 1, 61, 100
1, 1055, Note_off_c, 1, 61, 64
1, 1056, Note_on_c, 1, 57, 100
1, 1103, Note_off_c, 1, 57, 64
1, 1104, Note_on_c, 1, 61, 100
1, 1151, Note_off_c, 1, 61, 64
1, 1152, Note_on_c, 1, 64, 100
1, 1199, Note_off_c, 1, 64, 64
1, 1200, Note_on_c, 1, 61, 100
1, 1247, Note_off_c, 1, 61, 64
1, 1248, Note_on_c, 1, 57, 100
1, 1295, Note_off_c, 1, 57, 64
1, 1296, Note_on_c, 1, 61, 100
1, 1343, Note_off_c, 1, 61, 64
1, 1344, Note_on_c, 1, 64, 100
1, 1391, Note_off_c, 1, 64, 64
1, 1392, Note_on_c, 1, 61, 100
1, 1439, Note_off_c, 1, 61, 64
1, 1440, Note_on_c, 1, 57, 100
1, 1487, Note_off_c, 1, 57, 64
1, 1488, Note_on_c, 1, 61, 100
1, 1535, Note_off_c, 1, 61, 64
1, 1536, Note_on_c, 1, 62, 100
1, 1536, Note_on_c, 2, 53, 64
1, 1536, Note_on_c, 2, 57, 64
1, 1536, Note_on_c, 2, 50, 64
1, 1583, Note_off_c, 2, 50, 64
1, 1583, Note_off_c, 2, 57, 64
1, 1583, Note_off_c, 2, 53, 64
1, 1584, Note_on_c, 2, 50, 64
1, 1584, Note_on_c, 2, 57, 64
1, 1584, Note_on_c, 2, 53, 64
1, 1631, Note_off_c, 2, 53, 64
1, 1631, Note_off_c, 2, 57, 64
1, 1631, Note_off_c, 2, 50, 64
1, 1632, Note_on_c, 2, 50, 64
1, 1632, Note_on_c, 2, 57, 64
1, 1632, Note_on_c, 2, 53, 64
1, 1679, Note_off_c, 2, 50, 64
1, 1679, Note_off_c, 2, 53, 64
1, 1679, Note_off_c, 2, 57, 64
1, 1680, Note_on_c, 2, 53, 64
1, 1680, Note_on_c, 2, 57, 64
1, 1680, Note_on_c, 2, 50, 64
1, 1727, Note_off_c, 2, 50, 64
1, 1727, Note_off_c, 2, 57, 64
1, 1727, Note_off_c, 2, 53, 64
1, 1728, Note_on_c, 2, 53, 64
1, 1728, Note_on_c, 2, 57, 64
1, 1728, Note_on_c, 2, 50, 64
1, 1775, Note_off_c, 2, 50, 64
1, 1775, Note_off_c, 2, 57, 64
1, 1775, Note_off_c, 2, 53, 64
1, 1776, Note_on_c, 2, 50, 64
1, 1776, Note_on_c, 2, 57, 64
1, 1776, Note_on_c, 2, 53, 64
1, 1823, Note_off_c, 1, 62, 64
1, 1823, Note_off_c, 2, 50, 64
1, 1823, Note_off_c, 2, 53, 64
1, 1823, Note_off_c, 2, 57, 64
1, 1824, Note_on_c, 1, 64, 100
1, 1824, Note_on_c, 2, 53, 64
1, 1824, Note_on_c, 2, 57, 64
1, 1824, Note_on_c, 2, 50, 64
1, 1871, Note_off_c, 2, 50, 64
1, 1871, Note_off_c, 2, 57, 64
1, 1871, Note_off_c, 2, 53, 64
1, 1872, Note_on_c, 2, 53, 64
1, 1872, Note_on_c, 2, 57, 64
1, 1872, Note_on_c, 2, 50, 64
1, 1919, Note_off_c, 1, 64, 64
1, 1919, Note_off_c, 2, 50, 64
1, 1919, Note_off_c, 2, 57, 64
1, 1919, Note_off_c, 2, 53, 64
1, 1920, Note_on_c, 1, 65, 100
1, 1920, Note_on_c, 2, 50, 64
1, 1920, Note_on_c, 2, 57, 64
1, 1920, Note_on_c, 2, 53, 64
1, 1967, Note_off_c, 2, 53, 64
1, 1967, Note_off_c, 2, 57, 64
1, 1967, Note_off_c, 2, 50, 64
1, 1968, Note_on_c, 2, 53, 64
1, 1968, Note_on_c, 2, 57, 64
1, 1968, Note_on_c, 2, 50, 64
1, 2015, Note_off_c, 2, 50, 64
1, 2015, Note_off_c, 2, 57, 64
1, 2015, Note_off_c, 2, 53, 64
1, 2016, Note_on_c, 2, 53, 64
1, 2016, Note_on_c, 2, 57, 64
1, 2016, Note_on_c, 2, 50, 64
1, 2063, Note_off_c, 2, 53, 64
1, 2063, Note_off_c, 2, 50, 64
1, 2063, Note_off_c, 2, 57, 64
1, 2064, Note_on_c, 2, 53, 64
1, 2064, Note_on_c, 2, 57, 64
1, 2064, Note_on_c, 2, 50, 64
1, 2111, Note_off_c, 2, 53, 64
1, 2111, Note_off_c, 2, 50, 64
1, 2111, Note_off_c, 2, 57, 64
1, 2112, Note_on_c, 2, 53, 64
1, 2112, Note_on_c, 2, 57, 64
1, 2112, Note_on_c, 2, 50, 64
1, 2159, Note_off_c, 2, 50, 64
1, 2159, Note_off_c, 2, 57, 64
1, 2159, Note_off_c, 2, 53, 64
1, 2160, Note_on_c, 2, 53, 64
1, 2160, Note_on_c, 2, 57, 64
1, 2160, Note_on_c, 2, 50, 64
1, 2207, Note_off_c, 2, 50, 64
1, 2207, Note_off_c, 2, 57, 64
1, 2207, Note_off_c, 2, 53, 64
1, 2208, Note_on_c, 2, 53, 64
1, 2208, Note_on_c, 2, 57, 64
1, 2208, Note_on_c, 2, 50, 64
1, 2255, Note_off_c, 2, 50, 64
1, 2255, Note_off_c, 2, 57, 64
1, 2255, Note_off_c, 2, 53, 64
1, 2256, Note_on_c, 2, 50, 64
1, 2256, Note_on_c, 2, 57, 64
1, 2256, Note_on_c, 2, 53, 64
1, 2303, Note_off_c, 1, 65, 64
1, 2303, Note_off_c, 2, 53, 64
1, 2303, Note_off_c, 2, 57, 64
1, 2303, Note_off_c, 2, 50, 64
1, 2304, Note_on_c, 1, 69, 100
1, 2304, Note_on_c, 2, 60, 64
1, 2304, Note_on_c, 2, 57, 64
1, 2304, Note_on_c, 2, 53, 64
1, 2351, Note_off_c, 2, 53, 64
1, 2351, Note_off_c, 2, 57, 64
1, 2351, Note_off_c, 2, 60, 64
1, 2352, Note_on_c, 2, 60, 64
1, 2352, Note_on_c, 2, 57, 64
1, 2352, Note_on_c, 2, 53, 64
1, 2399, Note_off_c, 2, 53, 64
1, 2399, Note_off_c, 2, 57, 64
1, 2399, Note_off_c, 2, 60, 64
1, 2400, Note_on_c, 2, 60, 64
1, 2400, Note_on_c, 2, 57, 64
1, 2400, Note_on_c, 2, 53, 64
1, 2447, Note_off_c, 1, 69, 64
1, 2447, Note_off_c, 2, 53, 64
1, 2447, Note_off_c, 2, 57, 64
1, 2447, Note_off_c, 2, 60, 64
1, 2448, Note_on_c, 1, 67, 100
1, 2448, Note_on_c, 2, 60, 64
1, 2448, Note_on_c, 2, 57, 64
1, 2448, Note_on_c, 2, 53, 64
1, 2495, Note_off_c, 2, 53, 64
1, 2495, Note_off_c, 2, 57, 64
1, 2495, Note_off_c, 2, 60, 64
1, 2496, Note_on_c, 2, 60, 64
1, 2496, Note_on_c, 2, 57, 64
1, 2496, Note_on_c, 2, 53, 64
1, 2543, Note_off_c, 2, 53, 64
1, 2543, Note_off_c, 2, 57, 64
1, 2543, Note_off_c, 2, 60, 64
1, 2544, Note_on_c, 2, 53, 64
1, 2544, Note_on_c, 2, 57, 64
1, 2544, Note_on_c, 2, 60, 64
1, 2591, Note_off_c, 1, 67, 64
1, 2591, Note_off_c, 2, 60, 64
1, 2591, Note_off_c, 2, 57, 64
1, 2591, Note_off_c, 2, 53, 64
1, 2592, Note_on_c, 1, 69, 100
1, 2592, Note_on_c, 2, 53, 64
1, 2592, Note_on_c, 2, 57, 64
1, 2592, Note_on_c, 2, 60, 64
1, 2639, Note_off_c, 2, 60, 64
1, 2639, Note_off_c, 2, 57, 64
1, 2639, Note_off_c, 2, 53, 64
1, 2640, Note_on_c, 2, 60, 64
1, 2640, Note_on_c, 2, 57, 64
1, 2640, Note_on_c, 2, 53, 64
1, 2687, Note_off_c, 1, 69, 64
1, 2687, Note_off_c, 2, 53, 64
1, 2687, Note_off_c, 2, 57, 64
1, 2687, Note_off_c, 2, 60, 64
1, 2688, Note_on_c, 1, 60, 100
1, 2688, Note_on_c, 2, 60, 64
1, 2688, Note_on_c, 2, 57, 64
1, 2688, Note_on_c, 2, 53, 64
1, 2735, Note_off_c, 2, 53, 64
1, 2735, Note_off_c, 2, 57, 64
1, 2735, Note_off_c, 2, 60, 64
1, 2736, Note_on_c, 2, 53, 64
1, 2736, Note_on_c, 2, 57, 64
1, 2736, Note_on_c, 2, 60, 64
1, 2783, Note_off_c, 2, 60, 64
1, 2783, Note_off_c, 2, 57, 64
1, 2783, Note_off_c, 2, 53, 64
1, 2784, Note_on_c, 2, 60, 64
1, 2784, Note_on_c, 2, 57, 64
1, 2784, Note_on_c, 2, 53, 64
1, 2831, Note_off_c, 2, 60, 64
1, 2831, Note_off_c, 2, 53, 64
1, 2831, Note_off_c, 2, 57, 64
1, 2832, Note_on_c, 2, 53, 64
1, 2832, Note_on_c, 2, 57, 64
1, 2832, Note_on_c, 2, 60, 64
1, 2879, Note_off_c, 2, 53, 64
1, 2879, Note_off_c, 2, 60, 64
1, 2879, Note_off_c, 2, 57, 64
1, 2880, Note_on_c, 2, 53, 64
1, 2880, Note_on_c, 2, 57, 64
1, 2880, Note_on_c, 2, 60, 64
1, 2927, Note_off_c, 2, 60, 64
1, 2927, Note_off_c, 2, 57, 64
1, 2927, Note_off_c, 2, 53, 64
1, 2928, Note_on_c, 2, 53, 64
1, 2928, Note_on_c, 2, 57, 64
1, 2928, Note_on_c, 2, 60, 64
1, 2975, Note_off_c, 2, 60, 64
1, 2975, Note_off_c, 2, 57, 64
1, 2975, Note_off_c, 2, 53, 64
1, 2976, Note_on_c, 2, 60, 64
1, 2976, Note_on_c, 2, 57, 64
1, 2976, Note_on_c, 2, 53, 64
1, 3023, Note_off_c, 2, 53, 64
1, 3023, Note_off_c, 2, 57, 64
1, 3023, Note_off_c, 2, 60, 64
1, 3024, Note_on_c, 2, 53, 64
1, 3024, Note_on_c, 2, 57, 64
1, 3024, Note_on_c, 2, 60, 64
1, 3071, Note_off_c, 1, 60, 64
1, 3071, Note_off_c, 2, 60, 64
1, 3071, Note_off_c, 2, 57, 64
1, 3071, Note_off_c, 2, 53, 64
1, 3072, Note_on_c, 1, 62, 100
1, 3072, Note_on_c, 2, 46, 64
1, 3072, Note_on_c, 2, 50, 64
1, 3072, Note_on_c, 2, 53, 64
1, 3119, Note_off_c, 2, 53, 64
1, 3119, Note_off_c, 2, 50, 64
1, 3119, Note_off_c, 2, 46, 64
1, 3120, Note_on_c, 2, 46, 64
1, 3120, Note_on_c, 2, 50, 64
1, 3120, Note_on_c, 2, 53, 64
1, 3167, Note_off_c, 2, 53, 64
1, 3167, Note_off_c, 2, 50, 64
1, 3167, Note_off_c, 2, 46, 64
1, 3168, Note_on_c, 2, 46, 64
1, 3168, Note_on_c, 2, 50, 64
1, 3168, Note_on_c, 2, 53, 64
1, 3215, Note_off_c, 2, 53, 64
1, 3215, Note_off_c, 2, 50, 64
1, 3215, Note_off_c, 2, 46, 64
1, 3216, Note_on_c, 2, 53, 64
1, 3216, Note_on_c, 2, 50, 64
1, 3216, Note_on_c, 2, 46, 64
1, 3263, Note_off_c, 2, 46, 64
1, 3263, Note_off_c, 2, 50, 64
1, 3263, Note_off_c, 2, 53, 64
1, 3264, Note_on_c, 2, 46, 64
1, 3264, Note_on_c, 2, 50, 64
1, 3264, Note_on_c, 2, 53, 64
1, 3311, Note_off_c, 2, 53, 64
1, 3311, Note_off_c, 2, 50, 64
1, 3311, Note_off_c, 2, 46, 64
1, 3312, Note_on_c, 2, 53, 64
1, 3312, Note_on_c, 2, 50, 64
1, 3312, Note_on_c, 2, 46, 64
1, 3359, Note_off_c, 1, 62, 64
1, 3359, Note_off_c, 2, 46, 64
1, 3359, Note_off_c, 2, 50, 64
1, 3359, Note_off_c, 2, 53, 64
1, 3360, Note_on_c, 1, 64, 100
1, 3360, Note_on_c, 2, 46, 64
1, 3360, Note_on_c, 2, 50, 64
1, 3360, Note_on_c, 2, 53, 64
1, 3407, Note_off_c, 2, 53, 64
1, 3407, Note_off_c, 2, 50, 64
1, 3407, Note_off_c, 2, 46, 64
1, 3408, Note_on_c, 2, 46, 64
1, 3408, Note_on_c, 2, 50, 64
1, 3408, Note_on_c, 2, 53, 64
1, 3455, Note_off_c, 1, 64, 64
1, 3455, Note_off_c, 2, 53, 64
1, 3455, Note_off_c, 2, 50, 64
1, 3455, Note_off_c, 2, 46, 64
1, 3456, Note_on_c, 1, 65, 100
1, 3456, Note_on_c, 2, 46, 64
1, 3456, Note_on_c, 2, 50, 64
1, 3456, Note_on_c, 2, 53, 64
1, 3503, Note_off_c, 2, 53, 64
1, 3503, Note_off_c, 2, 50, 64
1, 3503, Note_off_c, 2, 46, 64
1, 3504, Note_on_c, 2, 53, 64
1, 3504, Note_on_c, 2, 50, 64
1, 3504, Note_on_c, 2, 46, 64
1, 3551, Note_off_c, 2, 46, 64
1, 3551, Note_off_c, 2, 50, 64
1, 3551, Note_off_c, 2, 53, 64
1, 3552, Note_on_c, 2, 53, 64
1, 3552, Note_on_c, 2, 50, 64
1, 3552, Note_on_c, 2, 46, 64
1, 3599, Note_off_c, 2, 46, 64
1, 3599, Note_off_c, 2, 50, 64
1, 3599, Note_off_c, 2, 53, 64
1, 3600, Note_on_c, 2, 46, 64
1, 3600, Note_on_c, 2, 50, 64
1, 3600, Note_on_c, 2, 53, 64
1, 3647, Note_off_c, 1, 65, 64
1, 3647, Note_off_c, 2, 46, 64
1, 3647, Note_off_c, 2, 53, 64
1, 3647, Note_off_c, 2, 50, 64
1, 3648, Note_on_c, 1, 64, 100
1, 3648, Note_on_c, 2, 46, 64
1, 3648, Note_on_c, 2, 50, 64
1, 3648, Note_on_c, 2, 53, 64
1, 3695, Note_off_c, 2, 53, 64
1, 3695, Note_off_c, 2, 50, 64
1, 3695, Note_off_c, 2, 46, 64
1, 3696, Note_on_c, 2, 46, 64
1, 3696, Note_on_c, 2, 50, 64
1, 3696, Note_on_c, 2, 53, 64
1, 3743, Note_off_c, 2, 53, 64
1, 3743, Note_off_c, 2, 50, 64
1, 3743, Note_off_c, 2, 46, 64
1, 3744, Note_on_c, 2, 53, 64
1, 3744, Note_on_c, 2, 50, 64
1, 3744, Note_on_c, 2, 46, 64
1, 3791, Note_off_c, 2, 46, 64
1, 3791, Note_off_c, 2, 50, 64
1, 3791, Note_off_c, 2, 53, 64
1, 3792, Note_on_c, 2, 46, 64
1, 3792, Note_on_c, 2, 50, 64
1, 3792, Note_on_c, 2, 53, 64
1, 3839, Note_off_c, 1, 64, 64
1, 3839, Note_off_c, 2, 53, 64
1, 3839, Note_off_c, 2, 50, 64
1, 3839, Note_off_c, 2, 46, 64
1, 3840, Note_on_c, 1, 67, 100
1, 3840, Note_on_c, 2, 48, 64
1, 3840, Note_on_c, 2, 52, 64
1, 3840, Note_on_c, 2, 55, 64
1, 3887, Note_off_c, 2, 55, 64
1, 3887, Note_off_c, 2, 52, 64
1, 3887, Note_off_c, 2, 48, 64
1, 3888, Note_on_c, 2, 55, 64
1, 3888, Note_on_c, 2, 52, 64
1, 3888, Note_on_c, 2, 48, 64
1, 3935, Note_off_c, 2, 48, 64
1, 3935, Note_off_c, 2, 52, 64
1, 3935, Note_off_c, 2, 55, 64
1, 3936, Note_on_c, 2, 48, 64
1, 3936, Note_on_c, 2, 52, 64
1, 3936, Note_on_c, 2, 55, 64
1, 3983, Note_off_c, 2, 55, 64
1, 3983, Note_off_c, 2, 52, 64
1, 3983, Note_off_c, 2, 48, 64
1, 3984, Note_on_c, 2, 55, 64
1, 3984, Note_on_c, 2, 52, 64
1, 3984, Note_on_c, 2, 48, 64
1, 4031, Note_off_c, 1, 67, 64
1, 4031, Note_off_c, 2, 48, 64
1, 4031, Note_off_c, 2, 52, 64
1, 4031, Note_off_c, 2, 55, 64
1, 4032, Note_on_c, 1, 69, 100
1, 4032, Note_on_c, 2, 48, 64
1, 4032, Note_on_c, 2, 52, 64
1, 4032, Note_on_c, 2, 55, 64
1, 4079, Note_off_c, 2, 55, 64
1, 4079, Note_off_c, 2, 52, 64
1, 4079, Note_off_c, 2, 48, 64
1, 4080, Note_on_c, 2, 55, 64
1, 4080, Note_on_c, 2, 52, 64
1, 4080, Note_on_c, 2, 48, 64
1, 4127, Note_off_c, 2, 48, 64
1, 4127, Note_off_c, 2, 52, 64
1, 4127, Note_off_c, 2, 55, 64
1, 4128, Note_on_c, 2, 55, 64
1, 4128, Note_on_c, 2, 52, 64
1, 4128, Note_on_c, 2, 48, 64
1, 4175, Note_off_c, 2, 55, 64
1, 4175, Note_off_c, 2, 48, 64
1, 4175, Note_off_c, 2, 52, 64
1, 4176, Note_on_c, 2, 48, 64
1, 4176, Note_on_c, 2, 52, 64
1, 4176, Note_on_c, 2, 55, 64
1, 4223, Note_off_c, 1, 69, 64
1, 4223, Note_off_c, 2, 55, 64
1, 4223, Note_off_c, 2, 52, 64
1, 4223, Note_off_c, 2, 48, 64
1, 4224, Note_on_c, 1, 67, 100
1, 4224, Note_on_c, 2, 45, 64
1, 4224, Note_on_c, 2, 49, 64
1, 4224, Note_on_c, 2, 52, 64
1, 4271, Note_off_c, 2, 52, 64
1, 4271, Note_off_c, 2, 49, 64
1, 4271, Note_off_c, 2, 45, 64
1, 4272, Note_on_c, 2, 52, 64
1, 4272, Note_on_c, 2, 49, 64
1, 4272, Note_on_c, 2, 45, 64
1, 4319, Note_off_c, 2, 45, 64
1, 4319, Note_off_c, 2, 49, 64
1, 4319, Note_off_c, 2, 52, 64
1, 4320, Note_on_c, 2, 45, 64
1, 4320, Note_on_c, 2, 49, 64
1, 4320, Note_on_c, 2, 52, 64
1, 4367, Note_off_c, 2, 45, 64
1, 4367, Note_off_c, 2, 52, 64
1, 4367, Note_off_c, 2, 49, 64
1, 4368, Note_on_c, 2, 45, 64
1, 4368, Note_on_c, 2, 49, 64
1, 4368, Note_on_c, 2, 52, 64
1, 4415, Note_off_c, 1, 67, 64
1, 4415, Note_off_c, 2, 45, 64
1, 4415, Note_off_c, 2, 52, 64
1, 4415, Note_off_c, 2, 49, 64
1, 4416, Note_on_c, 1, 65, 100
1, 4416, Note_on_c, 2, 45, 64
1, 4416, Note_on_c, 2, 49, 64
1, 4416, Note_on_c, 2, 52, 64
1, 4463, Note_off_c, 2, 52, 64
1, 4463, Note_off_c, 2, 49, 64
1, 4463, Note_off_c, 2, 45, 64
1, 4464, Note_on_c, 2, 45, 64
1, 4464, Note_on_c, 2, 49, 64
1, 4464, Note_on_c, 2, 52, 64
1, 4511, Note_off_c, 2, 52, 64
1, 4511, Note_off_c, 2, 49, 64
1, 4511, Note_off_c, 2, 45, 64
1, 4512, Note_on_c, 2, 52, 64
1, 4512, Note_on_c, 2, 49, 64
1, 4512, Note_on_c, 2, 45, 64
1, 4559, Note_off_c, 2, 45, 64
1, 4559, Note_off_c, 2, 49, 64
1, 4559, Note_off_c, 2, 52, 64
1, 4560, Note_on_c, 2, 45, 64
1, 4560, Note_on_c, 2, 49, 64
1, 4560, Note_on_c, 2, 52, 64
1, 4607, Note_off_c, 1, 65, 64
1, 4607, Note_off_c, 2, 52, 64
1, 4607, Note_off_c, 2, 49, 64
1, 4607, Note_off_c, 2, 45, 64
1, 4608, Note_on_c, 2, 50, 64
1, 4608, Note_on_c, 2, 57, 64
1, 4608, Note_on_c, 2, 53, 64
1, 4655, Note_off_c, 2, 53, 64
1, 4655, Note_off_c, 2, 57, 64
1, 4655, Note_off_c, 2, 50, 64
1, 4656, Note_on_c, 2, 50, 64
1, 4656, Note_on_c, 2, 57, 64
1, 4656, Note_on_c, 2, 53, 64
1, 4703, Note_off_c, 2, 53, 64
1, 4703, Note_off_c, 2, 57, 64
1, 4703, Note_off_c, 2, 50, 64
1, 4704, Note_on_c, 1, 65, 100
1, 4704, Note_on_c, 2, 50, 64
1, 4704, Note_on_c, 2, 57, 64
1, 4704, Note_on_c, 2, 53, 64
1, 4751, Note_off_c, 2, 50, 64
1, 4751, Note_off_c, 2, 53, 64
1, 4751, Note_off_c, 2, 57, 64
1, 4752, Note_on_c, 2, 53, 64
1, 4752, Note_on_c, 2, 57, 64
1, 4752, Note_on_c, 2, 50, 64
1, 4799, Note_off_c, 1, 65, 64
1, 4799, Note_off_c, 2, 50, 64
1, 4799, Note_off_c, 2, 57, 64
1, 4799, Note_off_c, 2, 53, 64
1, 4800, Note_on_c, 1, 65, 100
1, 4800, Note_on_c, 2, 50, 64
1, 4800, Note_on_c, 2, 57, 64
1, 4800, Note_on_c, 2, 53, 64
1, 4847, Note_off_c, 2, 53, 64
1, 4847, Note_off_c, 2, 57, 64
1, 4847, Note_off_c, 2, 50, 64
1, 4848, Note_on_c, 2, 53, 64
1, 4848, Note_on_c, 2, 57, 64
1, 4848, Note_on_c, 2, 50, 64
1, 4895, Note_off_c, 1, 65, 64
1, 4895, Note_off_c, 2, 50, 64
1, 4895, Note_off_c, 2, 57, 64
1, 4895, Note_off_c, 2, 53, 64
1, 4896, Note_on_c, 1, 65, 100
1, 4896, Note_on_c, 2, 53, 64
1, 4896, Note_on_c, 2, 57, 64
1, 4896, Note_on_c, 2, 50, 64
1, 4943, Note_off_c, 2, 50, 64
1, 4943, Note_off_c, 2, 57, 64
1, 4943, Note_off_c, 2, 53, 64
1, 4944, Note_on_c, 2, 53, 64
1, 4944, Note_on_c, 2, 57, 64
1, 4944, Note_on_c, 2, 50, 64
1, 4991, Note_off_c, 1, 65, 64
1, 4991, Note_off_c, 2, 50, 64
1, 4991, Note_off_c, 2, 57, 64
1, 4991, Note_off_c, 2, 53, 64
1, 4992, Note_on_c, 1, 69, 100
1, 4992, Note_on_c, 2, 53, 64
1, 4992, Note_on_c, 2, 57, 64
1, 4992, Note_on_c, 2, 50, 64
1, 5039, Note_off_c, 2, 50, 64
1, 5039, Note_off_c, 2, 57, 64
1, 5039, Note_off_c, 2, 53, 64
1, 5040, Note_on_c, 2, 53, 64
1, 5040, Note_on_c, 2, 57, 64
1, 5040, Note_on_c, 2, 50, 64
1, 5087, Note_off_c, 1, 69, 64
1, 5087, Note_off_c, 2, 50, 64
1, 5087, Note_off_c, 2, 57, 64
1, 5087, Note_off_c, 2, 53, 64
1, 5088, Note_on_c, 1, 69, 100
1, 5088, Note_on_c, 2, 53, 64
1, 5088, Note_on_c, 2, 57, 64
1, 5088, Note_on_c, 2, 50, 64
1, 5135, Note_off_c, 2, 50, 64
1, 5135, Note_off_c, 2, 57, 64
1, 5135, Note_off_c, 2, 53, 64
1, 5136, Note_on_c, 2, 53, 64
1, 5136, Note_on_c, 2, 57, 64
1, 5136, Note_on_c, 2, 50, 64
1, 5183, Note_off_c, 1, 69, 64
1, 5183, Note_off_c, 2, 50, 64
1, 5183, Note_off_c, 2, 57, 64
1, 5183, Note_off_c, 2, 53, 64
1, 5184, Note_on_c, 1, 67, 100
1, 5184, Note_on_c, 2, 53, 64
1, 5184, Note_on_c, 2, 57, 64
1, 5184, Note_on_c, 2, 50, 64
1, 5231, Note_off_c, 2, 50, 64
1, 5231, Note_off_c, 2, 57, 64
1, 5231, Note_off_c, 2, 53, 64
1, 5232, Note_on_c, 2, 50, 64
1, 5232, Note_on_c, 2, 57, 64
1, 5232, Note_on_c, 2, 53, 64
1, 5279, Note_off_c, 1, 67, 64
1, 5279, Note_off_c, 2, 53, 64
1, 5279, Note_off_c, 2, 57, 64
1, 5279, Note_off_c, 2, 50, 64
1, 5280, Note_on_c, 1, 65, 100
1, 5280, Note_on_c, 2, 53, 64
1, 5280, Note_on_c, 2, 57, 64
1, 5280, Note_on_c, 2, 50, 64
1, 5327, Note_off_c, 2, 53, 64
1, 5327, Note_off_c, 2, 50, 64
1, 5327, Note_off_c, 2, 57, 64
1, 5328, Note_on_c, 2, 53, 64
1, 5328, Note_on_c, 2, 57, 64
1, 5328, Note_on_c, 2, 50, 64
1, 5375, Note_off_c, 1, 65, 64
1, 5375, Note_off_c, 2, 50, 64
1, 5375, Note_off_c, 2, 57, 64
1, 5375, Note_off_c, 2, 53, 64
1, 5376, Note_on_c, 2, 60, 64
1, 5376, Note_on_c, 2, 57, 64
1, 5376, Note_on_c, 2, 53, 64
1, 5423, Note_off_c, 2, 60, 64
1, 5423, Note_off_c, 2, 53, 64
1, 5423, Note_off_c, 2, 57, 64
1, 5424, Note_on_c, 2, 60, 64
1, 5424, Note_on_c, 2, 57, 64
1, 5424, Note_on_c, 2, 53, 64
1, 5471, Note_off_c, 2, 53, 64
1, 5471, Note_off_c, 2, 57, 64
1, 5471, Note_off_c, 2, 60, 64
1, 5472, Note_on_c, 1, 69, 100
1, 5472, Note_on_c, 2, 53, 64
1, 5472, Note_on_c, 2, 57, 64
1, 5472, Note_on_c, 2, 60, 64
1, 5519, Note_off_c, 2, 60, 64
1, 5519, Note_off_c, 2, 57, 64
1, 5519, Note_off_c, 2, 53, 64
1, 5520, Note_on_c, 2, 53, 64
1, 5520, Note_on_c, 2, 57, 64
1, 5520, Note_on_c, 2, 60, 64
1, 5567, Note_off_c, 1, 69, 64
1, 5567, Note_off_c, 2, 60, 64
1, 5567, Note_off_c, 2, 57, 64
1, 5567, Note_off_c, 2, 53, 64
1, 5568, Note_on_c, 1, 69, 100
1, 5568, Note_on_c, 2, 53, 64
1, 5568, Note_on_c, 2, 57, 64
1, 5568, Note_on_c, 2, 60, 64
1, 5615, Note_off_c, 2, 60, 64
1, 5615, Note_off_c, 2, 57, 64
1, 5615, Note_off_c, 2, 53, 64
1, 5616, Note_on_c, 2, 60, 64
1, 5616, Note_on_c, 2, 57, 64
1, 5616, Note_on_c, 2, 53, 64
1, 5663, Note_off_c, 1, 69, 64
1, 5663, Note_off_c, 2, 53, 64
1, 5663, Note_off_c, 2, 57, 64
1, 5663, Note_off_c, 2, 60, 64
1, 5664, Note_on_c, 1, 69, 100
1, 5664, Note_on_c, 2, 60, 64
1, 5664, Note_on_c, 2, 57, 64
1, 5664, Note_on_c, 2, 53, 64
1, 5711, Note_off_c, 2, 53, 64
1, 5711, Note_off_c, 2, 57, 64
1, 5711, Note_off_c, 2, 60, 64
1, 5712, Note_on_c, 2, 53, 64
1, 5712, Note_on_c, 2, 57, 64
1, 5712, Note_on_c, 2, 60, 64
1, 5759, Note_off_c, 1, 69, 64
1, 5759, Note_off_c, 2, 60, 64
1, 5759, Note_off_c, 2, 57, 64
1, 5759, Note_off_c, 2, 53, 64
1, 5760, Note_on_c, 1, 67, 100
1, 5760, Note_on_c, 2, 53, 64
1, 5760, Note_on_c, 2, 57, 64
1, 5760, Note_on_c, 2, 60, 64
1, 5807, Note_off_c, 2, 53, 64
1, 5807, Note_off_c, 2, 60, 64
1, 5807, Note_off_c, 2, 57, 64
1, 5808, Note_on_c, 2, 53, 64
1, 5808, Note_on_c, 2, 57, 64
1, 5808, Note_on_c, 2, 60, 64
1, 5855, Note_off_c, 1, 67, 64
1, 5855, Note_off_c, 2, 60, 64
1, 5855, Note_off_c, 2, 57, 64
1, 5855, Note_off_c, 2, 53, 64
1, 5856, Note_on_c, 1, 69, 100
1, 5856, Note_on_c, 2, 60, 64
1, 5856, Note_on_c, 2, 57, 64
1, 5856, Note_on_c, 2, 53, 64
1, 5903, Note_off_c, 2, 53, 64
1, 5903, Note_off_c, 2, 57, 64
1, 5903, Note_off_c, 2, 60, 64
1, 5904, Note_on_c, 2, 53, 64
1, 5904, Note_on_c, 2, 57, 64
1, 5904, Note_on_c, 2, 60, 64
1, 5951, Note_off_c, 1, 69, 64
1, 5951, Note_off_c, 2, 53, 64
1, 5951, Note_off_c, 2, 60, 64
1, 5951, Note_off_c, 2, 57, 64
1, 5952, Note_on_c, 1, 67, 100
1, 5952, Note_on_c, 2, 60, 64
1, 5952, Note_on_c, 2, 57, 64
1, 5952, Note_on_c, 2, 53, 64
1, 5999, Note_off_c, 2, 53, 64
1, 5999, Note_off_c, 2, 57, 64
1, 5999, Note_off_c, 2, 60, 64
1, 6000, Note_on_c, 2, 60, 64
1, 6000, Note_on_c, 2, 57, 64
1, 6000, Note_on_c, 2, 53, 64
1, 6047, Note_off_c, 1, 67, 64
1, 6047, Note_off_c, 2, 60, 64
1, 6047, Note_off_c, 2, 53, 64
1, 6047, Note_off_c, 2, 57, 64
1, 6048, Note_on_c, 1, 65, 100
1, 6048, Note_on_c, 2, 53, 64
1, 6048, Note_on_c, 2, 57, 64
1, 6048, Note_on_c, 2, 60, 64
1, 6095, Note_off_c, 2, 60, 64
1, 6095, Note_off_c, 2, 57, 64
1, 6095, Note_off_c, 2, 53, 64
1, 6096, Note_on_c, 2, 53, 64
1, 6096, Note_on_c, 2, 57, 64
1, 6096, Note_on_c, 2, 60, 64
1, 6143, Note_off_c, 1, 65, 64
1, 6143, Note_off_c, 2, 60, 64
1, 6143, Note_off_c, 2, 57, 64
1, 6143, Note_off_c, 2, 53, 64
1, 6144, Note_on_c, 2, 46, 64
1, 6144, Note_on_c, 2, 50, 64
1, 6144, Note_on_c, 2, 53, 64
1, 6191, Note_off_c, 2, 53, 64
1, 6191, Note_off_c, 2, 50, 64
1, 6191, Note_off_c, 2, 46, 64
1, 6192, Note_on_c, 2, 53, 64
1, 6192, Note_on_c, 2, 50, 64
1, 6192, Note_on_c, 2, 46, 64
1, 6239, Note_off_c, 2, 46, 64
1, 6239, Note_off_c, 2, 50, 64
1, 6239, Note_off_c, 2, 53, 64
1, 6240, Note_on_c, 1, 65, 100
1, 6240, Note_on_c, 2, 53, 64
1, 6240, Note_on_c, 2, 50, 64
1, 6240, Note_on_c, 2, 46, 64
1, 6287, Note_off_c, 2, 46, 64
1, 6287, Note_off_c, 2, 50, 64
1, 6287, Note_off_c, 2, 53, 64
1, 6288, Note_on_c, 2, 46, 64
1, 6288, Note_on_c, 2, 50, 64
1, 6288, Note_on_c, 2, 53, 64
1, 6335, Note_off_c, 1, 65, 64
1, 6335, Note_off_c, 2, 53, 64
1, 6335, Note_off_c, 2, 50, 64
1, 6335, Note_off_c, 2, 46, 64
1, 6336, Note_on_c, 1, 65, 100
1, 6336, Note_on_c, 2, 53, 64
1, 6336, Note_on_c, 2, 50, 64
1, 6336, Note_on_c, 2, 46, 64
1, 6383, Note_off_c, 2, 46, 64
1, 6383, Note_off_c, 2, 50, 64
1, 6383, Note_off_c, 2, 53, 64
1, 6384, Note_on_c, 2, 53, 64
1, 6384, Note_on_c, 2, 50, 64
1, 6384, Note_on_c, 2, 46, 64
1, 6431, Note_off_c, 1, 65, 64
1, 6431, Note_off_c, 2, 53, 64
1, 6431, Note_off_c, 2, 46, 64
1, 6431, Note_off_c, 2, 50, 64
1, 6432, Note_on_c, 1, 65, 100
1, 6432, Note_on_c, 2, 53, 64
1, 6432, Note_on_c, 2, 50, 64
1, 6432, Note_on_c, 2, 46, 64
1, 6479, Note_off_c, 2, 46, 64
1, 6479, Note_off_c, 2, 50, 64
1, 6479, Note_off_c, 2, 53, 64
1, 6480, Note_on_c, 2, 46, 64
1, 6480, Note_on_c, 2, 50, 64
1, 6480, Note_on_c, 2, 53, 64
1, 6527, Note_off_c, 1, 65, 64
1, 6527, Note_off_c, 2, 53, 64
1, 6527, Note_off_c, 2, 50, 64
1, 6527, Note_off_c, 2, 46, 64
1, 6528, Note_on_c, 1, 69, 100
1, 6528, Note_on_c, 2, 46, 64
1, 6528, Note_on_c, 2, 50, 64
1, 6528, Note_on_c, 2, 53, 64
1, 6575, Note_off_c, 2, 53, 64
1, 6575, Note_off_c, 2, 50, 64
1, 6575, Note_off_c, 2, 46, 64
1, 6576, Note_on_c, 2, 46, 64
1, 6576, Note_on_c, 2, 50, 64
1, 6576, Note_on_c, 2, 53, 64
1, 6623, Note_off_c, 1, 69, 64
1, 6623, Note_off_c, 2, 53, 64
1, 6623, Note_off_c, 2, 50, 64
1, 6623, Note_off_c, 2, 46, 64
1, 6624, Note_on_c, 1, 69, 100
1, 6624, Note_on_c, 2, 53, 64
1, 6624, Note_on_c, 2, 50, 64
1, 6624, Note_on_c, 2, 46, 64
1, 6671, Note_off_c, 2, 46, 64
1, 6671, Note_off_c, 2, 50, 64
1, 6671, Note_off_c, 2, 53, 64
1, 6672, Note_on_c, 2, 53, 64
1, 6672, Note_on_c, 2, 50, 64
1, 6672, Note_on_c, 2, 46, 64
1, 6719, Note_off_c, 1, 69, 64
1, 6719, Note_off_c, 2, 46, 64
1, 6719, Note_off_c, 2, 50, 64
1, 6719, Note_off_c, 2, 53, 64
1, 6720, Note_on_c, 1, 67, 100
1, 6720, Note_on_c, 2, 46, 64
1, 6720, Note_on_c, 2, 50, 64
1, 6720, Note_on_c, 2, 53, 64
1, 6767, Note_off_c, 2, 53, 64
1, 6767, Note_off_c, 2, 50, 64
1, 6767, Note_off_c, 2, 46, 64
1, 6768, Note_on_c, 2, 46, 64
1, 6768, Note_on_c, 2, 50, 64
1, 6768, Note_on_c, 2, 53, 64
1, 6815, Note_off_c, 1, 67, 64
1, 6815, Note_off_c, 2, 53, 64
1, 6815, Note_off_c, 2, 50, 64
1, 6815, Note_off_c, 2, 46, 64
1, 6816, Note_on_c, 1, 65, 100
1, 6816, Note_on_c, 2, 46, 64
1, 6816, Note_on_c, 2, 50, 64
1, 6816, Note_on_c, 2, 53, 64
1, 6863, Note_off_c, 2, 53, 64
1, 6863, Note_off_c, 2, 50, 64
1, 6863, Note_off_c, 2, 46, 64
1, 6864, Note_on_c, 2, 46, 64
1, 6864, Note_on_c, 2, 50, 64
1, 6864, Note_on_c, 2, 53, 64
1, 6911, Note_off_c, 1, 65, 64
1, 6911, Note_off_c, 2, 53, 64
1, 6911, Note_off_c, 2, 50, 64
1, 6911, Note_off_c, 2, 46, 64
1, 6912, Note_on_c, 2, 55, 64
1, 6912, Note_on_c, 2, 52, 64
1, 6912, Note_on_c, 2, 48, 64
1, 6959, Note_off_c, 2, 55, 64
1, 6959, Note_off_c, 2, 48, 64
1, 6959, Note_off_c, 2, 52, 64
1, 6960, Note_on_c, 2, 48, 64
1, 6960, Note_on_c, 2, 52, 64
1, 6960, Note_on_c, 2, 55, 64
1, 7007, Note_off_c, 2, 55, 64
1, 7007, Note_off_c, 2, 52, 64
1, 7007, Note_off_c, 2, 48, 64
1, 7008, Note_on_c, 1, 69, 100
1, 7008, Note_on_c, 2, 55, 64
1, 7008, Note_on_c, 2, 52, 64
1, 7008, Note_on_c, 2, 48, 64
1, 7055, Note_off_c, 2, 48, 64
1, 7055, Note_off_c, 2, 52, 64
1, 7055, Note_off_c, 2, 55, 64
1, 7056, Note_on_c, 2, 55, 64
1, 7056, Note_on_c, 2, 52, 64
1, 7056, Note_on_c, 2, 48, 64
1, 7103, Note_off_c, 1, 69, 64
1, 7103, Note_off_c, 2, 48, 64
1, 7103, Note_off_c, 2, 52, 64
1, 7103, Note_off_c, 2, 55, 64
1, 7104, Note_on_c, 1, 69, 100
1, 7104, Note_on_c, 2, 55, 64
1, 7104, Note_on_c, 2, 52, 64
1, 7104, Note_on_c, 2, 48, 64
1, 7151, Note_off_c, 2, 48, 64
1, 7151, Note_off_c, 2, 52, 64
1, 7151, Note_off_c, 2, 55, 64
1, 7152, Note_on_c, 2, 55, 64
1, 7152, Note_on_c, 2, 52, 64
1, 7152, Note_on_c, 2, 48, 64
1, 7199, Note_off_c, 1, 69, 64
1, 7199, Note_off_c, 2, 55, 64
1, 7199, Note_off_c, 2, 48, 64
1, 7199, Note_off_c, 2, 52, 64
1, 7200, Note_on_c, 1, 69, 100
1, 7200, Note_on_c, 2, 55, 64
1, 7200, Note_on_c, 2, 52, 64
1, 7200, Note_on_c, 2, 48, 64
1, 7247, Note_off_c, 2, 48, 64
1, 7247, Note_off_c, 2, 52, 64
1, 7247, Note_off_c, 2, 55, 64
1, 7248, Note_on_c, 2, 55, 64
1, 7248, Note_on_c, 2, 52, 64
1, 7248, Note_on_c, 2, 48, 64
1, 7295, Note_off_c, 1, 69, 64
1, 7295, Note_off_c, 2, 48, 64
1, 7295, Note_off_c, 2, 52, 64
1, 7295, Note_off_c, 2, 55, 64
1, 7296, Note_on_c, 2, 52, 64
1, 7296, Note_on_c, 2, 49, 64
1, 7296, Note_on_c, 2, 45, 64
1, 7343, Note_off_c, 2, 45, 64
1, 7343, Note_off_c, 2, 49, 64
1, 7343, Note_off_c, 2, 52, 64
1, 7344, Note_on_c, 2, 45, 64
1, 7344, Note_on_c, 2, 49, 64
1, 7344, Note_on_c, 2, 52, 64
1, 7391, Note_off_c, 2, 52, 64
1, 7391, Note_off_c, 2, 49, 64
1, 7391, Note_off_c, 2, 45, 64
1, 7392, Note_on_c, 1, 73, 100
1, 7392, Note_on_c, 2, 52, 64
1, 7392, Note_on_c, 2, 49, 64
1, 7392, Note_on_c, 2, 45, 64
1, 7439, Note_off_c, 2, 45, 64
1, 7439, Note_off_c, 2, 49, 64
1, 7439, Note_off_c, 2, 52, 64
1, 7440, Note_on_c, 2, 45, 64
1, 7440, Note_on_c, 2, 49, 64
1, 7440, Note_on_c, 2, 52, 64
1, 7487, Note_off_c, 1, 73, 64
1, 7487, Note_off_c, 2, 52, 64
1, 7487, Note_off_c, 2, 49, 64
1, 7487, Note_off_c, 2, 45, 64
1, 7488, Note_on_c, 1, 73, 100
1, 7488, Note_on_c, 2, 45, 64
1, 7488, Note_on_c, 2, 49, 64
1, 7488, Note_on_c, 2, 52, 64
1, 7535, Note_off_c, 2, 52, 64
1, 7535, Note_off_c, 2, 49, 64
1, 7535, Note_off_c, 2, 45, 64
1, 7536, Note_on_c, 2, 52, 64
1, 7536, Note_on_c, 2, 49, 64
1, 7536, Note_on_c, 2, 45, 64
1, 7583, Note_off_c, 1, 73, 64
1, 7583, Note_off_c, 2, 45, 64
1, 7583, Note_off_c, 2, 49, 64
1, 7583, Note_off_c, 2, 52, 64
1, 7584, Note_on_c, 1, 73, 100
1, 7584, Note_on_c, 2, 45, 64
1, 7584, Note_on_c, 2, 49, 64
1, 7584, Note_on_c, 2, 52, 64
1, 7631, Note_off_c, 2, 52, 64
1, 7631, Note_off_c, 2, 49, 64
1, 7631, Note_off_c, 2, 45, 64
1, 7632, Note_on_c, 2, 45, 64
1, 7632, Note_on_c, 2, 49, 64
1, 7632, Note_on_c, 2, 52, 64
1, 7679, Note_off_c, 1, 73, 64
1, 7679, Note_off_c, 2, 52, 64
1, 7679, Note_off_c, 2, 49, 64
1, 7679, Note_off_c, 2, 45, 64
1, 7680, Note_on_c, 2, 53, 64
1, 7680, Note_on_c, 2, 57, 64
1, 7680, Note_on_c, 2, 50, 64
1, 7727, Note_off_c, 2, 50, 64
1, 7727, Note_off_c, 2, 57, 64
1, 7727, Note_off_c, 2, 53, 64
1, 7728, Note_on_c, 2, 53, 64
1, 7728, Note_on_c, 2, 57, 64
1, 7728, Note_on_c, 2, 50, 64
1, 7775, Note_off_c, 2, 50, 64
1, 7775, Note_off_c, 2, 57, 64
1, 7775, Note_off_c, 2, 53, 64
1, 7776, Note_on_c, 1, 65, 100
1, 7776, Note_on_c, 2, 53, 64
1, 7776, Note_on_c, 2, 57, 64
1, 7776, Note_on_c, 2, 50, 64
1, 7823, Note_off_c, 2, 53, 64
1, 7823, Note_off_c, 2, 50, 64
1, 7823, Note_off_c, 2, 57, 64
1, 7824, Note_on_c, 2, 50, 64
1, 7824, Note_on_c, 2, 57, 64
1, 7824, Note_on_c, 2, 53, 64
1, 7871, Note_off_c, 1, 65, 64
1, 7871, Note_off_c, 2, 50, 64
1, 7871, Note_off_c, 2, 53, 64
1, 7871, Note_off_c, 2, 57, 64
1, 7872, Note_on_c, 1, 65, 100
1, 7872, Note_on_c, 2, 53, 64
1, 7872, Note_on_c, 2, 57, 64
1, 7872, Note_on_c, 2, 50, 64
1, 7919, Note_off_c, 2, 50, 64
1, 7919, Note_off_c, 2, 57, 64
1, 7919, Note_off_c, 2, 53, 64
1, 7920, Note_on_c, 2, 53, 64
1, 7920, Note_on_c, 2, 57, 64
1, 7920, Note_on_c, 2, 50, 64
1, 7967, Note_off_c, 1, 65, 64
1, 7967, Note_off_c, 2, 53, 64
1, 7967, Note_off_c, 2, 50, 64
1, 7967, Note_off_c, 2, 57, 64
1, 7968, Note_on_c, 1, 65, 100
1, 7968, Note_on_c, 2, 50, 64
1, 7968, Note_on_c, 2, 57, 64
1, 7968, Note_on_c, 2, 53, 64
1, 8015, Note_off_c, 2, 53, 64
1, 8015, Note_off_c, 2, 57, 64
1, 8015, Note_off_c, 2, 50, 64
1, 8016, Note_on_c, 2, 50, 64
1, 8016, Note_on_c, 2, 57, 64
1, 8016, Note_on_c, 2, 53, 64
1, 8063, Note_off_c, 1, 65, 64
1, 8063, Note_off_c, 2, 53, 64
1, 8063, Note_off_c, 2, 57, 64
1, 8063, Note_off_c, 2, 50, 64
1, 8064, Note_on_c, 1, 69, 100
1, 8064, Note_on_c, 2, 53, 64
1, 8064, Note_on_c, 2, 60, 64
1, 8064, Note_on_c, 2, 57, 64
1, 8111, Note_off_c, 2, 57, 64
1, 8111, Note_off_c, 2, 60, 64
1, 8111, Note_off_c, 2, 53, 64
1, 8112, Note_on_c, 2, 53, 64
1, 8112, Note_on_c, 2, 60, 64
1, 8112, Note_on_c, 2, 57, 64
1, 8159, Note_off_c, 1, 69, 64
1, 8159, Note_off_c, 2, 57, 64
1, 8159, Note_off_c, 2, 60, 64
1, 8159, Note_off_c, 2, 53, 64
1, 8160, Note_on_c, 1, 69, 100
1, 8160, Note_on_c, 2, 53, 64
1, 8160, Note_on_c, 2, 60, 64
1, 8160, Note_on_c, 2, 57, 64
1, 8207, Note_off_c, 2, 53, 64
1, 8207, Note_off_c, 2, 57, 64
1, 8207, Note_off_c, 2, 60, 64
1, 8208, Note_on_c, 2, 57, 64
1, 8208, Note_on_c, 2, 60, 64
1, 8208, Note_on_c, 2, 53, 64
1, 8255, Note_off_c, 1, 69, 64
1, 8255, Note_off_c, 2, 57, 64
1, 8255, Note_off_c, 2, 53, 64
1, 8255, Note_off_c, 2, 60, 64
1, 8256, Note_on_c, 1, 67, 100
1, 8256, Note_on_c, 2, 53, 64
1, 8256, Note_on_c, 2, 60, 64
1, 8256, Note_on_c, 2, 57, 64
1, 8303, Note_off_c, 2, 57, 64
1, 8303, Note_off_c, 2, 60, 64
1, 8303, Note_off_c, 2, 53, 64
1, 8304, Note_on_c, 2, 57, 64
1, 8304, Note_on_c, 2, 60, 64
1, 8304, Note_on_c, 2, 53, 64
1, 8351, Note_off_c, 1, 67, 64
1, 8351, Note_off_c, 2, 57, 64
1, 8351, Note_off_c, 2, 53, 64
1, 8351, Note_off_c, 2, 60, 64
1, 8352, Note_on_c, 1, 65, 100
1, 8352, Note_on_c, 2, 53, 64
1, 8352, Note_on_c, 2, 60, 64
1, 8352, Note_on_c, 2, 57, 64
1, 8399, Note_off_c, 2, 53, 64
1, 8399, Note_off_c, 2, 57, 64
1, 8399, Note_off_c, 2, 60, 64
1, 8400, Note_on_c, 2, 57, 64
1, 8400, Note_on_c, 2, 60, 64
1, 8400, Note_on_c, 2, 53, 64
1, 8447, Note_off_c, 1, 65, 64
1, 8447, Note_off_c, 2, 53, 64
1, 8447, Note_off_c, 2, 60, 64
1, 8447, Note_off_c, 2, 57, 64
1, 8448, Note_on_c, 2, 46, 64
1, 8448, Note_on_c, 2, 50, 64
1, 8448, Note_on_c, 2, 53, 64
1, 8495, Note_off_c, 2, 46, 64
1, 8495, Note_off_c, 2, 53, 64
1, 8495, Note_off_c, 2, 50, 64
1, 8496, Note_on_c, 2, 46, 64
1, 8496, Note_on_c, 2, 50, 64
1, 8496, Note_on_c, 2, 53, 64
1, 8543, Note_off_c, 2, 53, 64
1, 8543, Note_off_c, 2, 50, 64
1, 8543, Note_off_c, 2, 46, 64
1, 8544, Note_on_c, 1, 70, 96
1, 8544, Note_on_c, 2, 53, 64
1, 8544, Note_on_c, 2, 50, 64
1, 8544, Note_on_c, 2, 46, 64
1, 8591, Note_off_c, 2, 53, 64
1, 8591, Note_off_c, 2, 46, 64
1, 8591, Note_off_c, 2, 50, 64
1, 8592, Note_on_c, 2, 46, 64
1, 8592, Note_on_c, 2, 50, 64
1, 8592, Note_on_c, 2, 53, 64
1, 8639, Note_off_c, 1, 70, 64
1, 8639, Note_off_c, 2, 46, 64
1, 8639, Note_off_c, 2, 53, 64
1, 8639, Note_off_c, 2, 50, 64
1, 8640, Note_on_c, 1, 70, 100
1, 8640, Note_on_c, 2, 53, 64
1, 8640, Note_on_c, 2, 50, 64
1, 8640, Note_on_c, 2, 46, 64
1, 8687, Note_off_c, 2, 46, 64
1, 8687, Note_off_c, 2, 50, 64
1, 8687, Note_off_c, 2, 53, 64
1, 8688, Note_on_c, 2, 46, 64
1, 8688, Note_on_c, 2, 50, 64
1, 8688, Note_on_c, 2, 53, 64
1, 8735, Note_off_c, 1, 70, 64
1, 8735, Note_off_c, 2, 46, 64
1, 8735, Note_off_c, 2, 53, 64
1, 8735, Note_off_c, 2, 50, 64
1, 8736, Note_on_c, 1, 70, 100
1, 8736, Note_on_c, 2, 53, 64
1, 8736, Note_on_c, 2, 50, 64
1, 8736, Note_on_c, 2, 46, 64
1, 8783, Note_off_c, 2, 46, 64
1, 8783, Note_off_c, 2, 50, 64
1, 8783, Note_off_c, 2, 53, 64
1, 8784, Note_on_c, 2, 53, 64
1, 8784, Note_on_c, 2, 50, 64
1, 8784, Note_on_c, 2, 46, 64
1, 8831, Note_off_c, 1, 70, 64
1, 8831, Note_off_c, 2, 46, 64
1, 8831, Note_off_c, 2, 50, 64
1, 8831, Note_off_c, 2, 53, 64
1, 8832, Note_on_c, 1, 69, 96
1, 8832, Note_on_c, 2, 55, 64
1, 8832, Note_on_c, 2, 52, 64
1, 8832, Note_on_c, 2, 48, 64
1, 8879, Note_off_c, 2, 48, 64
1, 8879, Note_off_c, 2, 52, 64
1, 8879, Note_off_c, 2, 55, 64
1, 8880, Note_on_c, 2, 48, 64
1, 8880, Note_on_c, 2, 52, 64
1, 8880, Note_on_c, 2, 55, 64
1, 8927, Note_off_c, 2, 55, 64
1, 8927, Note_off_c, 2, 52, 64
1, 8927, Note_off_c, 2, 48, 64
1, 8928, Note_on_c, 2, 48, 64
1, 8928, Note_on_c, 2, 52, 64
1, 8928, Note_on_c, 2, 55, 64
1, 8975, Note_off_c, 2, 48, 64
1, 8975, Note_off_c, 2, 55, 64
1, 8975, Note_off_c, 2, 52, 64
1, 8976, Note_on_c, 2, 55, 64
1, 8976, Note_on_c, 2, 52, 64
1, 8976, Note_on_c, 2, 48, 64
1, 9023, Note_off_c, 1, 69, 64
1, 9023, Note_off_c, 2, 55, 64
1, 9023, Note_off_c, 2, 48, 64
1, 9023, Note_off_c, 2, 52, 64
1, 9024, Note_on_c, 1, 72, 96
1, 9024, Note_on_c, 2, 48, 64
1, 9024, Note_on_c, 2, 52, 64
1, 9024, Note_on_c, 2, 55, 64
1, 9071, Note_off_c, 2, 55, 64
1, 9071, Note_off_c, 2, 52, 64
1, 9071, Note_off_c, 2, 48, 64
1, 9072, Note_on_c, 2, 55, 64
1, 9072, Note_on_c, 2, 52, 64
1, 9072, Note_on_c, 2, 48, 64
1, 9119, Note_off_c, 2, 48, 64
1, 9119, Note_off_c, 2, 52, 64
1, 9119, Note_off_c, 2, 55, 64
1, 9120, Note_on_c, 2, 48, 64
1, 9120, Note_on_c, 2, 52, 64
1, 9120, Note_on_c, 2, 55, 64
1, 9167, Note_off_c, 2, 55, 64
1, 9167, Note_off_c, 2, 52, 64
1, 9167, Note_off_c, 2, 48, 64
1, 9168, Note_on_c, 2, 48, 64
1, 9168, Note_on_c, 2, 52, 64
1, 9168, Note_on_c, 2, 55, 64
1, 9215, Note_off_c, 1, 72, 64
1, 9215, Note_off_c, 2, 55, 64
1, 9215, Note_off_c, 2, 52, 64
1, 9215, Note_off_c, 2, 48, 64
1, 9216, Note_on_c, 1, 69, 96
1, 9216, Note_on_c, 2, 45, 64
1, 9216, Note_on_c, 2, 49, 64
1, 9216, Note_on_c, 2, 52, 64
1, 9263, Note_off_c, 2, 52, 64
1, 9263, Note_off_c, 2, 49, 64
1, 9263, Note_off_c, 2, 45, 64
1, 9264, Note_on_c, 2, 45, 64
1, 9264, Note_on_c, 2, 49, 64
1, 9264, Note_on_c, 2, 52, 64
1, 9311, Note_off_c, 2, 52, 64
1, 9311, Note_off_c, 2, 49, 64
1, 9311, Note_off_c, 2, 45, 64
1, 9312, Note_on_c, 2, 45, 64
1, 9312, Note_on_c, 2, 49, 64
1, 9312, Note_on_c, 2, 52, 64
1, 9359, Note_off_c, 2, 52, 64
1, 9359, Note_off_c, 2, 49, 64
1, 9359, Note_off_c, 2, 45, 64
1, 9360, Note_on_c, 2, 45, 64
1, 9360, Note_on_c, 2, 49, 64
1, 9360, Note_on_c, 2, 52, 64
1, 9407, Note_off_c, 1, 69, 64
1, 9407, Note_off_c, 2, 52, 64
1, 9407, Note_off_c, 2, 49, 64
1, 9407, Note_off_c, 2, 45, 64
1, 9408, Note_on_c, 1, 73, 96
1, 9408, Note_on_c, 2, 52, 64
1, 9408, Note_on_c, 2, 49, 64
1, 9408, Note_on_c, 2, 45, 64
1, 9455, Note_off_c, 2, 45, 64
1, 9455, Note_off_c, 2, 49, 64
1, 9455, Note_off_c, 2, 52, 64
1, 9456, Note_on_c, 2, 52, 64
1, 9456, Note_on_c, 2, 49, 64
1, 9456, Note_on_c, 2, 45, 64
1, 9503, Note_off_c, 2, 45, 64
1, 9503, Note_off_c, 2, 49, 64
1, 9503, Note_off_c, 2, 52, 64
1, 9504, Note_on_c, 2, 52, 64
1, 9504, Note_on_c, 2, 49, 64
1, 9504, Note_on_c, 2, 45, 64
1, 9551, Note_off_c, 2, 45, 64
1, 9551, Note_off_c, 2, 49, 64
1, 9551, Note_off_c, 2, 52, 64
1, 9552, Note_on_c, 2, 45, 64
1, 9552, Note_on_c, 2, 49, 64
1, 9552, Note_on_c, 2, 52, 64
1, 9599, Note_off_c, 1, 73, 64
1, 9599, Note_off_c, 2, 52, 64
1, 9599, Note_off_c, 2, 49, 64
1, 9599, Note_off_c, 2, 45, 64
